<?xml version="1.0" encoding="UTF-8"?>
<svg width="24" height="24" version="1.1" viewBox="0 0 24 24" xmlns="http://www.w3.org/2000/svg">
 <g transform="matrix(3.1494 0 0 3.1494 -5.8918 4.7745)">
  <g transform="matrix(.23512 0 0 .23512 -11.73 36.766)">
   <path d="m64.071-152.53v6.508l4.171 3.454v9.459h11.619v-9.459l4.171-3.454v-6.508zm13.79 17.421h-7.619v-7.459h7.619zm4.171-11.854-2.698 2.235h-10.566l-2.697-2.235v-3.567h15.961z"/>
  </g>
  <g transform="matrix(.20651 -.11242 .11242 .20651 3.9063 -.39201)">
   <path d="m0 0h1.9997v4.3341h-1.9997z"/>
  </g>
  <g transform="matrix(.11252 -.20645 .20645 .11252 6.5495 .278)">
   <path d="m0 0h4.3341v1.9997h-4.3341z"/>
  </g>
  <g transform="matrix(.23512 0 0 .23512 5.446 -.88096)">
   <path d="m0 0h2v4.335h-2z"/>
  </g>
 </g>
</svg>
