<svg xmlns="http://www.w3.org/2000/svg" version="1.1" xmlns:xlink="http://www.w3.org/1999/xlink" xmlns:svgjs="http://svgjs.dev/svgjs" width="2000" height="2250" viewBox="0 0 2000 2250"><g transform="matrix(1,0,0,1,0.000015624999718966137,0)"><svg viewBox="0 0 320 360" data-background-color="#222222" preserveAspectRatio="xMidYMid meet" height="2250" width="2000" xmlns="http://www.w3.org/2000/svg" xmlns:xlink="http://www.w3.org/1999/xlink"><g id="tight-bounds" transform="matrix(1,0,0,1,0.0000025000000505315256,0)"><svg viewBox="0 0 320 360" height="360" width="320"><g><svg></svg></g><g><svg viewBox="0 0 320 360" height="360" width="320"><g><path transform="translate(-19.44751,3.1739) scale(3.53591,3.53591)" d="M67.6 10.7c0.2 0 1.8 0.8 2.7 1.1-0.3 0.1-1-0.2-1.8-0.5 0.2 0 0.6 0.1 1 0.3-0.2-0.2-1.7-0.7-1.9-0.9M52.7 7.6c0.3-0.1 3.8 0.4 5.4 0.5 0.1-0.1-0.2-0.1-0.6-0.2 0.5-0.1 1.5 0.2 2.2 0.3-2.1 0.1-4.4-0.5-6.4-0.3-0.7 0-0.2-0.2-0.6-0.3M49.8 7.6c1.8 0 3.2 0 0.6 0.2-0.3-0.1-0.7-0.1-0.6-0.2M78.1 15.9c0.2 0 1 0.9 1.4 1.2-0.1 0.1-0.9-0.7-1.3-1 0.1 0.1 0 0-0.1-0.2M76.1 14.6c-0.8-0.7-1.1-0.7-1.2-1.1 0.7 0.4 1.2 0.8 1.2 1.1M63.2 8.3c0.1-0.1 0.3 0.1 0.8 0.2-0.6-0.1-0.5 0-0.3 0.2-0.7-0.1-0.9-0.2-0.7-0.4 0.4 0.2 0.5 0.1 0.2 0M34.8 9.5c0-0.1 0.4-0.3 0.7-0.4-0.3 0.2-0.2 0.3 0.3 0.1 0 0.1-0.6 0.3-1 0.5 0.2-0.1 0.4-0.4 0-0.2M65.2 7.3c-0.3 0.1-1.4-0.5-2.5-0.7-0.6-0.2 2.4 0.5 2.5 0.7M6.2 56.7c0.6 2.5 0.2 2.4 0 0M6.3 41.7c0.1-0.4 0.2-1.5 0.3-1.4-0.3 2.4-0.8 3.5-0.9 5.3 0.3-1.6-0.1 0.9-0.2 1.5 0.1 0.8 0.1-0.5 0.3-0.3 0.2 0.3-0.4 4.5-0.2 2.2-0.2 2.1 0 4.4 0.4 5-0.5 3.2 2 10.4 2.5 11.9 0.1 0.1 0-0.5 0.2-0.1 0.2 1.3 1.1 2.2 1.4 3.6 0.3 0.4 1.5 2.6 1.7 3.1 0.4 0.8 0.6 0.7 1 1.5 1.2 2.3 3.1 4.5 4.9 6.6 5.8 6.8 14.7 12.4 24.6 14.4 9.9 2.1 20.3 0.6 28.4-3.3 0.5-0.3 0.4-0.4 1-0.6 2.8-0.9 6.2-3.8 8.1-4.9 0.9-1 3.3-2.7 3.6-3.7 1.7-1.4 3.4-3.7 4.3-5.2 0.5-0.8 0.9-0.8 1.1-1.3-0.1 0 1.6-2.1 2.1-3.3-0.2 0-0.5 0.6-0.5 0 3.6-6.9 5.6-16.2 4.5-22.6 0.2 7.9-1.8 16.7-5.6 22.3-1.7 3.6-5.2 7.5-8.4 10.3-0.5 0.5-1 1.1-1.6 1.5-1.9 1.6-4 2.9-6.2 4.1-5.2 2.9-11 5.4-17.8 5.5 11.7-1 22.2-6.9 28-14.1-4.4 4.3-6.3 6-11.2 8.5-0.4 0.7-3.7 2.1-5.9 2.7 1.3-0.6 4-1.6 4.9-2.4-7.3 3.5-15.4 5.5-23 4.4 2.9 0 7 0.1 10.9-0.6 0.6-0.2 0.9-0.4 1.6-0.5 7.6-1.7 14.9-5.4 20.1-10.6-3 2.7-7.5 5.9-10.4 6.9 2.7-1.5 7.6-4.4 9.2-6.6-3.2 3.2-9.2 6.4-13 7.8-0.6 0.1 0.4-0.4-0.6 0-1.2 0.3-0.7 0.3-1 0.5-4.6 1.3-9.9 2.4-14.3 2-0.8-0.1-1.1-0.3-1.8-0.3-0.8-0.1-1.5-0.1-2.4-0.1-3.5-0.4-7.3-1.8-10.1-3-1.5-0.7-3-1.2-4.5-2.1-1.2-0.7-2.2-1.5-3.2-2.3-3.8-2.8-7-5.6-10-9.6-5.4-7.5-8.2-16.9-7.8-26.2 0.4-9.3 4.1-18.4 10-25.1-0.3 0.3 0.4-0.7 1-1.3 0 0.2-0.1 0.5 0.6-0.2 0.6-0.7-0.2-0.2 0.1-0.6 6.2-6.8 17-12.3 28.1-12.5 0.4-0.3 1.1-0.7 1.9-0.5 0 0.1-0.5 0.1-0.5 0.1 1.1-0.1 2.1-0.1 2.6 0.1 0.1-0.1-0.4-0.2 0-0.2 0.7 0.2 0.9 0 1.3 0.2-0.3 0-0.6 0-0.8 0.1 2.5 0 4.1 0.6 6.6 0.8-1.3-0.3-1.6-0.3-2.6-0.6 1.1 0.2 1.6 0.4 2.1 0.3-0.2 0-0.1-0.3 0.1-0.2 2 0.5 2.2 0.7 4.3 1.4 0.2-0.2-0.9-0.3-1.2-0.6 2 0.7 3.8 1.2 5 2-0.4-0.3-1.6-0.7-2.5-1.1-0.1 0.1 0.3 0.2 0.4 0.4-1-0.5-2.4-1-3.8-1.2 1.2 0.3 2 0.7 2.5 0.9-1.1-0.2-2.5-0.9-4.1-1.2 2.6 0.8 7.5 2.6 10.5 4.2-1.1-0.7-2.4-1.2-3.1-1.6 0.6 0.1 1.3 0.5 1.3 0.3 0.7 0.3 1.6 1 2.1 1.1-0.9-0.6-2.7-1.5-3.3-1.8 7.5 3.4 14.2 9.1 18.5 16.4 0.4 0.7 1 2.3 1.5 2.5-0.1-0.5-0.5-0.8-0.9-1.6 0.2 0 0.2-0.3 0-0.6-0.4-0.5 0 0.4-0.4-0.1-1.8-3.3-4-6.2-7.4-9.4 1.9 1.8 0.5 0.5 0.1-0.1 2.6 2.3 5.6 6.2 6.9 8.2-0.2-0.3-0.3-0.5-0.2-0.5 2.4 4.1 3.9 7.8 5.4 13.1 0.1 0.1 0-0.4 0.2-0.1 1 4.2 1.3 7.7 1.2 10.9 0.8-5.4-1-13.8-4.2-20.4-0.4-0.8-0.4-0.2-0.8-1.1 0-0.3-0.3-0.9-0.5-1.3-4-6.6-8.9-11.3-14.7-15 0.4 0.2 1.2 0.8 1.2 0.7-10.8-7.1-23.3-8.1-33.6-5.9-0.7 0.3-1 0.6-1.8 1 1.5-0.5 2.4-0.6 3.8-0.9 0.3-0.3-1.3 0.1-0.6-0.2 0.1 0.1 1.4-0.2 1.7-0.1 0 0.1-0.4 0.2-0.5 0.3 3.3-0.7 6.7-0.8 9.6-0.6-1.7 0.1-4.8-0.2-5.8 0.3 1-0.1 2.4-0.2 3.3-0.1-1.2 0-3.4 0.1-4.4 0.2-0.1-0.1 1.6-0.3 0.5-0.3-0.5 0.1-1.3 0.1-1.6 0.4-8.6 0.8-17 5.3-22.9 10.6-1.2 1-2.6 2.1-3.5 3.2-2.2 2.5-3.6 5-5.2 7.2 1-2.1 3.2-5.3 5.8-8 2.6-2.7 5.4-5 6.9-6.2 0 0.4 2.4-1.5 3.3-2.1-0.6 0.5 0.4-0.2 0.6-0.1 3.2-1.9 5.8-2.6 8.7-3.7-0.7 0.2-1.3 0.4-1.4 0.3 0.7-0.2 1.1-0.4 1-0.5-2.8 0.8-7.2 2.7-10.7 4.8 6.3-4.3 14.3-6.9 22.2-7 7.9-0.2 15.6 1.8 21.7 5 4.1 1.8 8 5.1 11.1 8.3 0.9 0.8 0.2-0.2 1.5 1.2-0.4-0.2-0.7-0.4-0.2 0.2 0.8 0.9-0.2-0.7 1.1 0.9-0.1 0-0.5-0.5-0.5-0.3 3.5 3.1 6.2 8.7 7.8 12.4-0.4-1.5-1.4-3.6-2.2-5.1 2.4 4.4 3.2 7 4.2 10.9 0.4 0.3-0.2-1.4 0.2-0.6 0.1 0.6 0.2 2.5 0.6 2.8-0.3-1.9-0.8-4.2-1.2-4.6 0.3 0.2-0.5-2.3-1-2.9-0.2-1.6-1.6-4.4-2.8-6.5-4.3-8.4-12-15.3-20.6-19.1 0-0.2-0.5-0.4-0.7-0.6-8.5-3.6-18.7-4.6-28.5-2.3-9.9 2.4-19.2 8.1-25.8 16.3 0.3-1 2.8-2.9 2.9-3.7-2.9 3.1-6 7.2-8.1 11.6-2.2 4.4-3.4 8.9-3.9 12.2" fill="#f4f3f0" fill-rule="nonzero" stroke="none" stroke-width="1" stroke-linecap="butt" stroke-linejoin="miter" stroke-miterlimit="10" stroke-dasharray="" stroke-dashoffset="0" font-family="none" font-weight="none" font-size="none" text-anchor="none" style="mix-blend-mode: normal" data-fill-palette-color="tertiary"></path></g><g transform="matrix(1,0,0,1,95.88762401672957,90)"><svg viewBox="0 0 128.22475196654085 180" height="180" width="128.22475196654085"><g><svg viewBox="0 0 224 314.4478689303385" height="180" width="128.22475196654085"><g transform="matrix(1,0,0,1,0,165.1891997258028)"><svg viewBox="0 0 224 149.25866920453564" height="149.25866920453564" width="224"><g id="textblocktransform"><svg viewBox="0 0 224 149.25866920453564" height="149.25866920453564" width="224" id="textblock"><g><svg viewBox="0 0 224 149.25866920453564" height="149.25866920453564" width="224"><g transform="matrix(1,0,0,1,0,0)"><svg width="224" viewBox="13.87721117935898 -2.8793950278631346 39.14595794600446 26.084236209667736" height="149.25866920453564" data-palette-color="#ffffff"><path d="M19.924 10.787l7.473 1.855 0.13-0.525-7.473-1.854zM22.482 1.016l-2.704-2.804-0.366 0.393 2.707 2.795c0 0-0.006-0.005-0.017-0.015-0.01-0.016-0.015-0.024-0.014-0.024v0l1.92 2.64 0.427-0.306-1.921-2.64c0 0 0.002-0.006 0.005-0.02 0.002-0.006-0.011-0.013-0.037-0.019zM30.745 3.715l2.563-1.734-0.308-0.416-2.563 1.734c-0.024 0.015-0.052 0.059-0.085 0.133-0.031 0.068-0.039 0.128-0.024 0.18v0l1.301 3.31 0.536-0.207-1.311-3.313c-0.028-0.055-0.066-0.01-0.116 0.136-0.051 0.152-0.049 0.211 0.007 0.177zM27.615 12.593l2.669-2.161-0.308-0.417-2.667 2.151c-0.057 0.034-0.093 0.083-0.109 0.149-0.016 0.065-0.007 0.125 0.027 0.181v0l1.359 3.119 0.47-0.233-1.359-3.119c-0.01-0.044-0.033 0.009-0.07 0.157-0.037 0.149-0.041 0.206-0.012 0.173zM20.106 10.76l2.772-1.373-0.224-0.467-2.782 1.37c-0.076 0.029-0.124 0.086-0.145 0.17-0.021 0.084-0.005 0.157 0.049 0.218v0l1.818 2.512 0.417-0.309-1.809-2.509c-0.053-0.061-0.102-0.005-0.145 0.17-0.043 0.175-0.027 0.247 0.049 0.218zM30.498 3.757v0l0.186-0.5c-0.76-0.257-1.648-0.529-2.662-0.815-1.014-0.286-2.02-0.566-3.016-0.841-0.998-0.268-1.878-0.487-2.64-0.655v0c-0.084-0.021-0.156-0.008-0.216 0.039-0.058 0.041-0.095 0.093-0.111 0.158v0l-4.463 17.984 0.524 0.13 4.463-17.984c0.016-0.065-0.052-0.054-0.204 0.032-0.147 0.094-0.188 0.149-0.123 0.165v0c0.763 0.162 1.643 0.38 2.64 0.655 0.998 0.268 1.998 0.544 2.999 0.826 1.008 0.284 1.882 0.553 2.623 0.806zM17.654 19.394l2.668 2.784 0.373-0.381-2.675-2.797c-0.015-0.024-0.048-0.043-0.1-0.055-0.058-0.014-0.109-0.017-0.153-0.007v0l-3.701 1.214 0.142 0.509 3.699-1.204c0.057-0.034 0.02-0.067-0.11-0.1-0.129-0.032-0.177-0.02-0.143 0.037zM14.072 20.669v0l6.376 1.582c0.104 0.026 0.189-0.001 0.257-0.081 0.066-0.073 0.087-0.157 0.063-0.252v0c-0.103-0.417-0.14-0.931-0.112-1.542 0.022-0.613 0.145-1.482 0.369-2.608 0.223-1.119 0.568-2.675 1.035-4.668v0l-0.318 0.199c1.702 0.422 2.994 0.764 3.878 1.024 0.888 0.268 1.548 0.501 1.98 0.697 0.43 0.203 0.774 0.425 1.03 0.668v0c0.099 0.073 0.193 0.093 0.284 0.06 0.086-0.041 0.139-0.103 0.159-0.187v0l1.308-5.27c0.027-0.11 0.011-0.196-0.049-0.259-0.068-0.058-0.162-0.081-0.281-0.07v0c-0.341 0.101-0.75 0.144-1.227 0.128-0.477-0.015-1.172-0.119-2.087-0.312-0.914-0.192-2.214-0.488-3.901-0.885v0l0.187 0.324c0.294-1.184 0.561-2.206 0.802-3.067 0.233-0.856 0.45-1.592 0.651-2.208v0l-0.32 0.168c1.842 0.409 3.253 0.787 4.232 1.132 0.979 0.346 1.705 0.657 2.18 0.933 0.466 0.281 0.847 0.56 1.141 0.839v0c0.1 0.066 0.196 0.083 0.287 0.051 0.084-0.034 0.137-0.096 0.159-0.187v0l1.253-5.047c0.016-0.065 0.005-0.129-0.035-0.194-0.039-0.065-0.091-0.105-0.155-0.121v0l-13.559-3.364c-0.084-0.021-0.164-0.003-0.24 0.053-0.071 0.065-0.098 0.158-0.08 0.279v0c0.094 0.339 0.143 0.739 0.146 1.201 0.002 0.461-0.064 1.073-0.198 1.836-0.136 0.77-0.34 1.774-0.614 3.011-0.273 1.237-0.647 2.817-1.124 4.739v0c-0.503 2.025-0.932 3.687-1.289 4.986-0.355 1.293-0.658 2.334-0.909 3.123-0.249 0.783-0.483 1.381-0.702 1.794-0.221 0.419-0.455 0.77-0.704 1.051v0c-0.066 0.073-0.084 0.158-0.053 0.255 0.036 0.105 0.096 0.168 0.18 0.189zM20.578 21.727l-6.376-1.582 0.127 0.443c0.255-0.28 0.494-0.636 0.718-1.068 0.219-0.44 0.468-1.055 0.746-1.845 0.278-0.79 0.6-1.85 0.965-3.181 0.363-1.325 0.802-3.023 1.315-5.093v0c0.488-1.967 0.872-3.585 1.153-4.855 0.281-1.27 0.477-2.296 0.589-3.079 0.112-0.783 0.171-1.41 0.179-1.883-0.001-0.467-0.048-0.884-0.143-1.251v0l-0.32 0.333 13.559 3.364-0.197-0.327-1.252 5.047 0.443-0.127c-0.321-0.286-0.723-0.574-1.206-0.866-0.49-0.293-1.24-0.624-2.248-0.99-1.01-0.36-2.457-0.754-4.344-1.181v0c-0.065-0.016-0.129-0.008-0.191 0.024-0.069 0.031-0.112 0.079-0.128 0.144v0c-0.204 0.657-0.426 1.412-0.666 2.266-0.235 0.862-0.499 1.885-0.792 3.07v0c-0.016 0.065-0.005 0.129 0.034 0.194 0.044 0.073 0.098 0.117 0.163 0.133v0c1.333 0.331 2.421 0.583 3.263 0.758 0.836 0.173 1.515 0.29 2.036 0.351 0.527 0.062 0.951 0.085 1.271 0.068 0.325-0.009 0.633-0.046 0.923-0.111v0l-0.332-0.32-1.308 5.271 0.444-0.127c-0.227-0.194-0.481-0.373-0.763-0.54-0.277-0.158-0.664-0.326-1.163-0.505-0.49-0.183-1.152-0.396-1.985-0.637-0.833-0.241-1.906-0.525-3.22-0.85v0c-0.065-0.016-0.133-0.002-0.206 0.042-0.065 0.039-0.105 0.091-0.121 0.155v0c-0.361 1.538-0.644 2.818-0.849 3.838-0.207 1.027-0.356 1.866-0.449 2.516-0.094 0.657-0.138 1.192-0.131 1.606 0.014 0.416 0.058 0.791 0.133 1.125v0zM30.6 20.765l3.299 1.669 0.202-0.488-3.29-1.681c-0.029-0.017-0.076-0.021-0.143-0.012-0.066 0.008-0.118 0.025-0.155 0.049v0l-2.764 2.426 0.393 0.415 2.756-2.415c0.041-0.052-0.012-0.069-0.157-0.051-0.146 0.018-0.192 0.047-0.141 0.088zM49.289 18.465l3.368 1.662 0.202-0.489-3.359-1.672c-0.022-0.017-0.063-0.022-0.123-0.015-0.053 0.007-0.101 0.023-0.145 0.048v0l-2.854 2.437 0.324 0.423 2.855-2.426c0.041-0.052-0.005-0.07-0.137-0.054-0.132 0.016-0.176 0.045-0.131 0.086zM28.225 2.276l2.648 3.503 0.434-0.315-2.647-3.503c-0.03-0.023-0.048-0.038-0.056-0.044-0.015-0.012-0.024-0.027-0.026-0.047v0l-3.26-1.684-0.28 0.508 3.269 1.673c0.02-0.002 0.004-0.021-0.047-0.055-0.045-0.041-0.057-0.053-0.035-0.036zM47.294 0.031l2.855-2.427-0.316-0.434-2.864 2.438c-0.017 0.022-0.032 0.041-0.043 0.055-0.006 0.007-0.02 0.026-0.044 0.056v0l-1.799 3.879 0.489 0.212 1.809-3.89c-0.002-0.02-0.024-0.004-0.065 0.048-0.035 0.045-0.042 0.066-0.022 0.063zM28.179 2.151l2.263 18.391 0.526-0.064-2.263-18.392c-0.008-0.066-0.064-0.032-0.168 0.102-0.11 0.141-0.132 0.208-0.067 0.199v0l3.216-0.395c0.04-0.005-0.006-0.046-0.136-0.125-0.13-0.071-0.181-0.075-0.153-0.011v0l8.362 17.439c0.054 0.108 0.146 0.153 0.279 0.137 0.132-0.016 0.215-0.084 0.247-0.201v0l4.045-18.966c0.018-0.069-0.03-0.053-0.145 0.048-0.108 0.107-0.138 0.158-0.092 0.152v0l3.076-0.378c0.066-0.008 0.029-0.067-0.112-0.178-0.134-0.104-0.197-0.124-0.189-0.057v0l2.263 18.391 0.526-0.065-2.263-18.391c-0.008-0.066-0.042-0.122-0.101-0.169-0.06-0.053-0.123-0.075-0.19-0.067v0l-3.076 0.378c-0.046 0.006-0.091 0.028-0.133 0.067-0.036 0.038-0.074 0.083-0.115 0.135v0l-4.044 18.966c-0.01 0.136 0.091 0.19 0.302 0.164 0.212-0.026 0.286-0.102 0.224-0.229v0l-8.362-17.439c-0.026-0.044-0.067-0.079-0.124-0.106-0.064-0.026-0.115-0.036-0.155-0.031v0l-3.216 0.395c-0.066 0.008-0.122 0.045-0.167 0.112-0.046 0.059-0.066 0.122-0.058 0.188zM31.836 1.903l2.13-2.348-0.377-0.357-2.129 2.348c-0.017 0.022-0.032 0.041-0.044 0.056-0.012 0.015-0.025 0.043-0.039 0.085v0l-0.559 3.897 0.543 0.075 0.559-3.898c-0.003-0.026-0.021-0.004-0.052 0.067-0.038 0.072-0.049 0.097-0.032 0.075zM43.8 0.3l1.267 3.501 0.52-0.195-1.278-3.51c-0.022-0.017-0.035-0.036-0.037-0.056-0.003-0.026-0.016-0.048-0.038-0.066v0l-2.377-1.793-0.348 0.446 2.377 1.793c0.042 0.015 0.039-0.011-0.01-0.079-0.056-0.074-0.081-0.087-0.076-0.041zM39.794 19.331l1.497 2.093 0.435-0.315-1.498-2.103c-0.057-0.08-0.135-0.114-0.235-0.102-0.099 0.012-0.177 0.065-0.232 0.159v0l-1.182 2.433 0.498 0.201 1.184-2.423c0.028-0.098-0.057-0.137-0.257-0.12-0.2 0.011-0.27 0.07-0.21 0.177zM40.273 19.131l-0.571-6.035-0.536 0.066 0.581 6.034zM27.978 23.203v0l6.055-0.745c0.112-0.014 0.183-0.07 0.211-0.167 0.036-0.092 0.025-0.178-0.032-0.258v0c-0.193-0.312-0.377-0.689-0.552-1.131-0.181-0.434-0.348-1.055-0.501-1.863-0.154-0.814-0.329-1.884-0.526-3.209-0.198-1.333-0.424-3.034-0.679-5.106v0c-0.103-0.84-0.215-1.747-0.334-2.719-0.119-0.966-0.208-1.771-0.267-2.416v0l-0.514 0.164c0.377 0.713 0.782 1.526 1.217 2.44 0.441 0.906 0.941 1.919 1.502 3.039v0c0.949 1.871 1.721 3.422 2.316 4.652 0.6 1.222 1.074 2.205 1.42 2.949 0.352 0.736 0.622 1.317 0.81 1.744 0.187 0.427 0.344 0.801 0.47 1.121v0c0.028 0.064 0.067 0.109 0.117 0.137 0.05 0.027 0.109 0.037 0.175 0.029v0l2.68-0.33c0.066-0.008 0.117-0.031 0.153-0.069 0.042-0.039 0.069-0.092 0.081-0.161v0c0.052-0.342 0.117-0.743 0.194-1.203 0.078-0.46 0.202-1.089 0.372-1.89 0.169-0.807 0.401-1.876 0.694-3.208 0.292-1.339 0.681-3.033 1.168-5.081v0c0.291-1.292 0.552-2.446 0.783-3.462 0.238-1.01 0.444-1.908 0.616-2.695v0l-0.548-0.033c0.119 0.751 0.24 1.626 0.363 2.625 0.124 1.006 0.233 1.896 0.328 2.67v0c0.255 2.071 0.448 3.777 0.58 5.118 0.131 1.334 0.216 2.415 0.258 3.242 0.047 0.82 0.042 1.462-0.015 1.927-0.05 0.47-0.144 0.881-0.282 1.233v0c-0.036 0.092-0.019 0.177 0.052 0.256 0.064 0.086 0.14 0.124 0.225 0.113v0l6.223-0.765c0.112-0.014 0.183-0.07 0.211-0.168 0.036-0.092 0.025-0.178-0.031-0.258v0c-0.193-0.312-0.377-0.689-0.552-1.131-0.181-0.434-0.348-1.055-0.502-1.862-0.154-0.814-0.329-1.884-0.526-3.21-0.198-1.333-0.424-3.034-0.678-5.106v0c-0.242-1.965-0.423-3.578-0.545-4.839-0.122-1.261-0.204-2.282-0.246-3.063-0.041-0.774-0.027-1.39 0.045-1.849 0.065-0.458 0.154-0.849 0.269-1.172v0c0.032-0.118 0.021-0.214-0.036-0.288-0.049-0.068-0.129-0.095-0.242-0.081v0l-8.307 1.022c-0.066 0.008-0.122 0.042-0.169 0.102-0.046 0.059-0.066 0.122-0.057 0.188v0c0.049 0.397 0.074 0.844 0.074 1.341 0.006 0.49-0.035 1.136-0.124 1.94-0.095 0.811-0.27 1.897-0.526 3.258-0.256 1.361-0.62 3.126-1.092 5.293v0l-0.603 2.795 0.536-0.066-1.263-2.565c-0.986-2.008-1.761-3.642-2.326-4.903-0.572-1.266-0.996-2.279-1.27-3.038-0.268-0.76-0.455-1.375-0.56-1.845-0.105-0.471-0.182-0.905-0.231-1.302v0c-0.008-0.066-0.042-0.122-0.101-0.169-0.059-0.046-0.122-0.066-0.188-0.057v0l-8.605 1.059c-0.086 0.011-0.154 0.056-0.205 0.136-0.043 0.086-0.035 0.182 0.025 0.289v0c0.209 0.283 0.398 0.64 0.565 1.069 0.167 0.429 0.324 1.025 0.471 1.786 0.148 0.768 0.316 1.778 0.504 3.031 0.188 1.253 0.403 2.862 0.645 4.827v0c0.255 2.071 0.448 3.777 0.579 5.118 0.131 1.334 0.22 2.415 0.268 3.241 0.047 0.82 0.042 1.462-0.015 1.927-0.056 0.47-0.15 0.882-0.282 1.233v0c-0.036 0.092-0.022 0.177 0.042 0.257 0.071 0.085 0.149 0.123 0.235 0.112zM33.967 21.922l-6.055 0.745 0.278 0.369c0.138-0.353 0.234-0.771 0.289-1.255 0.047-0.489 0.06-1.153 0.037-1.989-0.022-0.837-0.101-1.942-0.237-3.316-0.135-1.367-0.332-3.109-0.592-5.227v0c-0.247-2.011-0.467-3.66-0.659-4.946-0.192-1.286-0.375-2.315-0.551-3.086-0.175-0.771-0.344-1.378-0.506-1.822-0.168-0.436-0.361-0.809-0.581-1.117v0l-0.18 0.425 8.605-1.059-0.301-0.235c0.049 0.397 0.127 0.837 0.234 1.321 0.099 0.478 0.287 1.103 0.563 1.876 0.276 0.772 0.699 1.805 1.268 3.098 0.576 1.299 1.359 2.963 2.347 4.991v0l1.252 2.566c0.059 0.1 0.155 0.142 0.288 0.126 0.132-0.016 0.215-0.08 0.248-0.192v0l0.594-2.793c0.467-2.207 0.827-4.004 1.079-5.392 0.259-1.389 0.432-2.495 0.519-3.318 0.086-0.83 0.129-1.49 0.129-1.981-0.007-0.496-0.035-0.943-0.084-1.34v0l-0.235 0.301 8.307-1.022-0.277-0.369c-0.118 0.35-0.209 0.758-0.273 1.223-0.063 0.471-0.086 1.102-0.069 1.892 0.017 0.791 0.088 1.833 0.213 3.128 0.126 1.294 0.312 2.947 0.56 4.958v0c0.26 2.117 0.491 3.856 0.692 5.215 0.202 1.366 0.393 2.457 0.574 3.274 0.181 0.817 0.361 1.457 0.538 1.919 0.177 0.455 0.365 0.838 0.565 1.15v0l0.179-0.425-6.223 0.765 0.287 0.368c0.131-0.352 0.224-0.77 0.279-1.254 0.054-0.49 0.066-1.153 0.038-1.989-0.022-0.837-0.101-1.942-0.237-3.316-0.135-1.367-0.332-3.109-0.593-5.227v0c-0.095-0.774-0.205-1.664-0.328-2.67-0.123-0.999-0.241-1.875-0.353-2.626v0c-0.019-0.152-0.109-0.228-0.27-0.229-0.155-0.008-0.248 0.057-0.279 0.196v0c-0.128 0.6-0.257 1.184-0.389 1.75-0.133 0.56-0.274 1.186-0.424 1.876-0.15 0.69-0.342 1.533-0.575 2.529v0c-0.484 2.075-0.872 3.778-1.165 5.111-0.299 1.333-0.533 2.41-0.701 3.229-0.169 0.813-0.292 1.45-0.37 1.91-0.079 0.453-0.141 0.85-0.185 1.191v0l0.243-0.231-2.68 0.33 0.283 0.166c-0.127-0.32-0.283-0.691-0.469-1.111-0.187-0.427-0.454-1.015-0.802-1.765-0.355-0.756-0.829-1.745-1.423-2.968-0.6-1.222-1.377-2.783-2.329-4.681v0c-0.567-1.166-1.073-2.195-1.518-3.088-0.446-0.899-0.847-1.696-1.201-2.391v0c-0.082-0.124-0.195-0.167-0.339-0.13-0.136 0.044-0.194 0.141-0.175 0.294v0c0.052 0.645 0.138 1.451 0.257 2.417 0.12 0.973 0.231 1.879 0.334 2.719v0c0.26 2.117 0.491 3.856 0.692 5.215 0.202 1.366 0.393 2.457 0.574 3.274 0.181 0.817 0.361 1.457 0.539 1.919 0.177 0.455 0.365 0.838 0.564 1.149v0z" opacity="1" transform="matrix(1,0,0,1,0,0)" fill="#ffffff" class="wordmark-text-0" data-fill-palette-color="primary" id="text-0"></path></svg></g></svg></g></svg></g></svg></g><g transform="matrix(1,0,0,1,68.70106995136396,0)"><svg viewBox="0 0 86.59786009727209 149.25866920453564" height="149.25866920453564" width="86.59786009727209"><g><svg xmlns="http://www.w3.org/2000/svg" xmlns:xlink="http://www.w3.org/1999/xlink" version="1.1" x="0" y="0" viewBox="21.679106830508623 1 56.85827385947761 98" enable-background="new 0 0 100 100" xml:space="preserve" height="149.25866920453564" width="86.59786009727209" class="icon-icon-0" data-fill-palette-color="accent" id="icon-0"><g fill="#527bb1" data-fill-palette-color="accent"><path fill-rule="evenodd" clip-rule="evenodd" d="M30.545 28.822c-1.165 7.217 0.33 14.85 6.5 19.041C30.758 19.81 45.756 8.664 59.646 1c-16.18 23.046 16.896 23.644 18.777 50.13C80.028 73.71 64.507 91.317 46.639 99c0.206-22.825-22.55-25.933-24.838-44.603C20.905 47.094 25.062 33.766 30.545 28.822z" fill="#527bb1" data-fill-palette-color="accent"></path></g></svg></g></svg></g><g></g></svg></g></svg></g></svg></g><defs></defs></svg><rect width="320" height="360" fill="none" stroke="none" visibility="hidden"></rect></g></svg></g></svg>